<svg xmlns="http://www.w3.org/2000/svg" x="0px" y="0px"
width="25" height="25"
viewBox="0 0 172 172"
style=" fill:#000000;"><g fill="none" fill-rule="nonzero" stroke="none" stroke-width="1" stroke-linecap="butt" stroke-linejoin="miter" stroke-miterlimit="10" stroke-dasharray="" stroke-dashoffset="0" font-family="none" font-weight="none" font-size="none" text-anchor="none" style="mix-blend-mode: normal"><path d="M0,172v-172h172v172z" fill="none"></path><g fill="#b3b3b3"><path d="M3.44,0c-0.86,0 -1.67969,0.38969 -2.365,1.075c-1.37062,1.37063 -1.37062,3.35938 0,4.73l165.12,165.12c0.68531,0.68531 1.67969,1.075 2.365,1.075c0.68531,0 1.67969,-0.38969 2.365,-1.075c1.37063,-1.37062 1.37063,-3.35937 0,-4.73l-26.015,-26.015c16.62219,-12.99406 26.445,-32.82781 26.445,-54.5025c0,-26.48531 -14.87531,-50.2025 -38.27,-62.2425c-1.72,-0.68531 -3.72219,-0.43 -4.4075,1.29c-0.68531,2.40531 0.02688,4.47469 1.3975,5.16c21.32531,10.66938 34.4,32.38438 34.4,56.115c0,19.60531 -9.08375,37.75938 -24.295,49.45l-10.965,-10.965c11.34125,-9.25844 18.3825,-23.30062 18.3825,-38.485c0,-18.23469 -9.95719,-35.045 -26.1225,-43.645c-1.72,-1.03469 -3.80281,-0.43 -4.8375,1.29c-1.03469,1.72 -0.40312,3.82969 0.9675,4.515c13.76,7.56531 22.79,22.01063 22.79,37.84c0,13.16875 -5.96625,25.55813 -16.125,33.54l-13.2225,-13.2225c7.26969,-4.09844 12.1475,-11.69062 12.1475,-20.3175c0,-10.66937 -7.31,-19.92781 -17.63,-22.6825c-1.72,-0.34937 -3.73562,0.645 -4.085,2.365c-0.34937,1.72 0.645,3.84313 2.365,4.1925c7.22938,1.72 12.47,8.23719 12.47,15.8025c0,6.85313 -4.27312,13.07469 -10.4275,15.48l-13.6525,-13.6525v-65.79c0,-7.91469 -5.20031,-11.395 -9.675,-11.395c-3.09062,0 -6.16781,1.33031 -8.9225,4.085l-27.1975,27.305l-40.635,-40.635c-0.68531,-0.68531 -1.505,-1.075 -2.365,-1.075zM82.56,17.2c2.75469,0 2.795,3.48031 2.795,4.515v58.91l-34.4,-34.4l27.09,-26.9825c1.72,-1.37062 3.14438,-2.0425 4.515,-2.0425zM37.195,50.525l-4.1925,4.515h-23.3275c-5.84531,0 -10.32,4.47469 -10.32,10.32v41.28c0,5.84531 4.47469,10.32 10.32,10.32h23.3275l40.3125,40.205c3.78938,3.78938 6.83969,4.515 9.245,4.515c5.84531,0 9.675,-5.11969 9.675,-12.685v-43.43l-6.88,-6.88v50.31c0,3.44 -1.075,5.805 -2.795,5.805c-1.03469,0 -2.71437,-0.99437 -4.085,-2.365l-43.7525,-43.43c-0.34937,-0.34937 -0.9675,-1.63937 -0.9675,-3.01v-39.99c0,-1.37062 0.61813,-2.75469 0.9675,-3.44l7.2025,-7.2025zM9.675,61.92h17.845c-0.34937,1.37063 -0.645,3.05031 -0.645,4.085v39.56c0,1.37063 0.29563,3.14438 0.645,4.515h-17.845c-2.06937,0 -3.44,-1.37062 -3.44,-3.44v-41.28c0,-2.06937 1.37063,-3.44 3.44,-3.44z"></path></g></g></svg>