<svg xmlns="http://www.w3.org/2000/svg" x="0px" y="0px"
width="25" height="25"
viewBox="0 0 172 172"
style=" fill:#000000;"><g fill="none" fill-rule="nonzero" stroke="none" stroke-width="1" stroke-linecap="butt" stroke-linejoin="miter" stroke-miterlimit="10" stroke-dasharray="" stroke-dashoffset="0" font-family="none" font-weight="none" font-size="none" text-anchor="none" style="mix-blend-mode: normal"><path d="M0,172v-172h172v172z" fill="none"></path><g fill="#1db954"><path d="M0,13.76v6.88h172v-6.88zM86.34265,27.86266c-5.504,0 -6.88,3.09734 -6.88,6.53734v58.48c0,7.568 -3.09197,13.41735 -16.50797,13.41735c-19.264,0 -27.17734,4.81734 -27.17734,16.85734c0,8.256 1.72134,20.29063 27.17734,20.29063c23.392,0 23.04531,-17.19731 23.04531,-26.48531v-51.6c0,-4.472 1.72269,-6.88 4.47469,-6.88c17.2,0 13.06797,10.32 37.14797,10.32c0,0 0.06445,0.00672 0.18141,0.00672c1.05952,0 6.35594,-0.27923 6.35594,-5.85203v-18.23469c0,-5.16 -2.06535,-6.53735 -6.53735,-6.53735c-24.08,0 -18.576,-10.32 -41.28,-10.32zM86.34265,34.74265c9.34304,0 12.49397,1.82051 16.48781,4.12531c4.988,2.87928 10.64137,6.13965 24.44953,6.19469l-0.00672,16.85735c-10.77408,-0.04816 -14.34991,-2.32872 -18.13391,-4.73672c-4.11768,-2.61784 -8.78501,-5.58328 -18.66469,-5.58328c-1.05952,0 -2.57027,0.12524 -4.13203,0.65844zM0,48.16v6.88h72.24v-6.88zM141.04,48.16v6.88h30.96v-6.88zM0,82.56v6.88h72.24v-6.88zM92.88,82.56v6.88h79.12v-6.88zM79.46265,108.7564v7.51828c0,11.8852 -1.17933,20.29063 -16.50797,20.29063c-20.296,0 -20.29734,-7.74839 -20.29734,-13.41063c0,-4.44448 0.00134,-9.97734 20.29734,-9.97734c7.67808,0 12.94413,-1.74118 16.50797,-4.42094zM0,116.96v6.88h28.89734c0,0 -0.68666,-4.472 1.37734,-6.88zM92.88,116.96c0,4.816 -0.68531,6.88 -0.68531,6.88h79.80531v-6.88zM0,151.36v6.88h172v-6.88z"></path></g></g></svg>