<svg xmlns="http://www.w3.org/2000/svg" x="0px" y="0px"
width="25" height="25"
viewBox="0 0 172 172"
style=" fill:#000000;"><g fill="none" fill-rule="nonzero" stroke="none" stroke-width="1" stroke-linecap="butt" stroke-linejoin="miter" stroke-miterlimit="10" stroke-dasharray="" stroke-dashoffset="0" font-family="none" font-weight="none" font-size="none" text-anchor="none" style="mix-blend-mode: normal"><path d="M0,172v-172h172v172z" fill="none"></path><g fill="#b3b3b3"><path d="M162.6475,27.95l-30.1,6.02c-1.08844,0.215 -1.8275,1.26313 -1.8275,2.365v72.5625c0,16.82375 -30.96,6.36938 -30.96,27.4125c0,9.08375 4.00438,15.05 17.2,15.05c12.67156,0 20.64,-9.1375 20.64,-19.4575v-73.4225l25.8,-5.2675c1.075,-0.215 1.8275,-1.15562 1.8275,-2.2575v-20.9625c0,-1.37062 -1.23625,-2.31125 -2.58,-2.0425zM6.88,34.4v6.88h106.64v-6.88zM6.88,61.92v6.88h106.64v-6.88zM6.88,89.44v6.88h106.64v-6.88zM6.88,116.96v6.88h82.56v-6.88zM6.88,144.48v6.88h82.56v-6.88z"></path></g></g></svg>