<svg xmlns="http://www.w3.org/2000/svg" x="0px" y="0px"
width="25" height="25"
viewBox="0 0 172 172"
style=" fill:#000000;"><g fill="none" fill-rule="nonzero" stroke="none" stroke-width="1" stroke-linecap="butt" stroke-linejoin="miter" stroke-miterlimit="10" stroke-dasharray="" stroke-dashoffset="0" font-family="none" font-weight="none" font-size="none" text-anchor="none" style="mix-blend-mode: normal"><path d="M0,172v-172h172v172z" fill="none"></path><g fill="#b3b3b3"><path d="M44.72,41.28c-24.57719,0 -44.72,20.14281 -44.72,44.72c0,0.1075 0,0.215 0,0.3225c0.17469,24.6175 20.06219,44.3975 44.72,44.3975c19.60531,0 29.95219,-12.3625 37.5175,-27.8425c-1.37062,-2.75469 -2.39187,-5.52281 -3.7625,-8.2775c-7.22937,16.16531 -15.86969,29.24 -33.755,29.24c-20.80125,0 -37.55781,-16.56844 -37.84,-37.3025c0.01344,-0.17469 0.01344,-0.36281 0,-0.5375c0,-20.82812 17.01188,-37.84 37.84,-37.84c11.05906,0 17.97938,4.43438 23.7575,11.61c5.77813,7.17563 9.9975,17.2 14.2975,27.52c4.3,10.32 8.68063,20.93563 15.3725,29.24c6.69188,8.30438 16.11156,14.19 29.1325,14.19c24.57719,0 44.72,-20.14281 44.72,-44.72c0,-0.1075 0,-0.215 0,-0.3225c-0.17469,-24.6175 -20.06219,-44.3975 -44.72,-44.3975c-19.60531,0 -29.95219,12.38938 -37.5175,27.52c1.37063,2.75469 2.39188,5.52281 3.7625,8.2775c7.22938,-15.82937 15.86969,-28.9175 33.755,-28.9175c20.80125,0 37.55781,16.56844 37.84,37.3025c-0.01344,0.17469 -0.01344,0.36281 0,0.5375c0,20.82813 -17.01187,37.84 -37.84,37.84c-11.05906,0 -17.97937,-4.43437 -23.7575,-11.61c-5.77812,-7.17562 -9.9975,-17.2 -14.2975,-27.52c-4.3,-10.32 -8.68062,-20.93562 -15.3725,-29.24c-6.69187,-8.30437 -16.11156,-14.19 -29.1325,-14.19z"></path></g></g></svg>