<svg xmlns="http://www.w3.org/2000/svg" x="0px" y="0px"
width="25" height="25"
viewBox="0 0 172 172"
style=" fill:#000000;"><g fill="none" fill-rule="nonzero" stroke="none" stroke-width="1" stroke-linecap="butt" stroke-linejoin="miter" stroke-miterlimit="10" stroke-dasharray="" stroke-dashoffset="0" font-family="none" font-weight="none" font-size="none" text-anchor="none" style="mix-blend-mode: normal"><path d="M0,172v-172h172v172z" fill="none"></path><g fill="#b3b3b3"><path d="M83.15797,10.36031c-1.04877,0.00402 -2.10557,0.17539 -3.14437,0.50391c-2.07761,0.65702 -4.0845,1.92807 -5.81844,3.68859l-40.47375,40.35281h-23.40141c-5.73611,-0.00001 -10.45438,4.72211 -10.45438,10.45437v41.28c0,5.73226 4.71827,10.45437 10.45438,10.45437h23.44844l40.22516,40.0975c3.85435,3.91353 8.77899,5.54793 12.82609,3.64156c4.0471,-1.90636 6.02672,-6.51225 6.02672,-11.83172v-127.23969c0,-5.15698 -2.55983,-9.48594 -6.59109,-10.89109c-1.00782,-0.35129 -2.04857,-0.51464 -3.09735,-0.51062zM83.12437,17.16641c0.34378,-0.00496 0.64318,0.04943 0.88688,0.13437c0.9748,0.33978 2.02235,1.26247 2.02235,4.46125v127.23969c0,3.67269 -1.27785,5.2689 -2.11641,5.66391c-0.83856,0.395 -2.42885,0.43362 -5.07265,-2.25078c-0.00669,-0.00675 -0.01341,-0.01347 -0.02016,-0.02016l-43.38297,-43.24859c-0.05633,-0.05577 -0.1146,-0.10955 -0.17469,-0.16125c0.26103,0.22577 -0.90031,-1.91256 -0.90031,-3.19141v-39.58687c0,-1.27884 1.19802,-3.48922 0.90031,-3.23172c0.06009,-0.0517 0.11835,-0.10548 0.17469,-0.16125l43.58453,-43.45688c0.00675,-0.00669 0.01347,-0.01341 0.02016,-0.02016c1.60706,-1.6317 3.04696,-2.15528 4.07828,-2.17016zM132.32578,23.44172c-1.58871,0.03056 -2.9498,1.14518 -3.29299,2.69669c-0.34318,1.5515 0.42084,3.13619 1.84846,3.83394c20.46366,10.32639 34.50078,31.50004 34.50078,56.02766c0,24.52762 -14.03778,45.70486 -34.50078,56.02765c-1.0973,0.5543 -1.81545,1.65199 -1.88385,2.87944c-0.0684,1.22745 0.52334,2.39813 1.55226,3.07092c1.02892,0.67279 2.33864,0.74544 3.43565,0.19059c22.71587,-11.45928 38.27672,-35.01365 38.27672,-62.1686c0,-27.15494 -15.5615,-50.70602 -38.27672,-62.16859c-0.51173,-0.26706 -1.08242,-0.40107 -1.65953,-0.38969zM120.1111,41.7436c-1.58956,-0.01279 -2.98092,1.06511 -3.36571,2.60745c-0.38479,1.54234 0.3372,3.14749 1.74649,3.88286c13.42394,7.24371 22.54813,21.4103 22.54813,37.7661c0,16.30303 -9.07845,30.43981 -22.4339,37.69219c-1.14295,0.55079 -1.88999,1.68593 -1.94373,2.95354c-0.05373,1.2676 0.59456,2.4619 1.6868,3.10744c1.09224,0.64554 2.45112,0.63754 3.53568,-0.02082c15.50614,-8.42026 26.03515,-24.8717 26.03515,-43.73235c0,-18.91796 -10.58067,-35.41139 -26.16281,-43.81969c-0.50343,-0.28123 -1.06947,-0.4314 -1.64609,-0.43672zM10.32,62.05437h17.77781c-0.39645,1.32388 -0.54422,2.71697 -0.54422,4.15219v39.58687c0,1.43723 0.15507,2.8318 0.55766,4.15219h-17.79125c-1.85253,0 -3.30562,-1.45613 -3.30562,-3.30563v-41.28c0,-1.8495 1.45309,-3.30563 3.30563,-3.30563zM105.41719,63.34437c-1.71912,0.05204 -3.13569,1.36565 -3.31706,3.07597c-0.18137,1.71032 0.92818,3.29181 2.59815,3.70325c7.03807,1.83688 12.26172,8.22574 12.26172,15.8764c0,7.65066 -5.22259,14.04312 -12.26172,15.88313c-1.23173,0.27123 -2.21631,1.19471 -2.56578,2.40657c-0.34948,1.21186 -0.00782,2.51779 0.89034,3.40325c0.89817,0.88545 2.20884,1.20846 3.41559,0.84174c10.01639,-2.61824 17.40156,-11.74695 17.40156,-22.53469c0,-10.78774 -7.38411,-19.92021 -17.40156,-22.53469c-0.33243,-0.09125 -0.6767,-0.13202 -1.02125,-0.12094z"></path></g></g></svg>