<svg xmlns="http://www.w3.org/2000/svg" viewBox="0 0 1440 320"><path fill="#1DB954" fill-opacity="1" d="M0,32L20,32C40,32,80,32,120,53.3C160,75,200,117,240,122.7C280,128,320,96,360,85.3C400,75,440,85,480,106.7C520,128,560,160,600,176C640,192,680,192,720,165.3C760,139,800,85,840,58.7C880,32,920,32,960,69.3C1000,107,1040,181,1080,218.7C1120,256,1160,256,1200,261.3C1240,267,1280,277,1320,261.3C1360,245,1400,203,1420,181.3L1440,160L1440,320L1420,320C1400,320,1360,320,1320,320C1280,320,1240,320,1200,320C1160,320,1120,320,1080,320C1040,320,1000,320,960,320C920,320,880,320,840,320C800,320,760,320,720,320C680,320,640,320,600,320C560,320,520,320,480,320C440,320,400,320,360,320C320,320,280,320,240,320C200,320,160,320,120,320C80,320,40,320,20,320L0,320Z"></path></svg>